{"title":"Amazons and Gladiators-AC3-XviD-DVDRip[Eng]2001 2Lions-Team","uid":5650387,"size":1462733113,"categoryP":"video","categoryS":"movies","magnet":"?xt=urn:btih:f62549985f37498a27d78a5b74e4117d4fb9551b&amp;dn=Amazons+and+Gladiators-AC3-XviD-DVDRip%5BEng%5D2001+2Lions-Team&amp;tr=udp%3A%2F%2Ftracker.openbittorrent.com%3A80&amp;tr=udp%3A%2F%2Fopen.demonii.com%3A1337&amp;tr=udp%3A%2F%2Ftracker.coppersurfer.tk%3A6969&amp;tr=udp%3A%2F%2Fexodus.desync.com%3A6969","seeders":0,"leechers":3,"uploader":"FatFreddy31","files":-1,"time":1277633436,"description":"During the Roman Empire, General Crassius ruled a small province with an Iron fist. Serena, a young girl in a village, watches Crassius kill her parents. Crassius and Serena's destiny would lead them to the Gladiator ring; the Amazons Warrior vs the Roman General.\n &lt;a href=&quot;\nhttp://www.imdb.com/title/tt0275913/&quot; rel=&quot;nofollow&quot; target=&quot;_NEW&quot;&gt;\nhttp://www.imdb.com/title/tt0275913/&lt;/a&gt;\n\nSubtitles (srt) : Dutch, English and German.\n\nCovers included.\n\nIn een afgelegen dorp aan de rand van het Romeinse rijk, wordt een jong meisje Serena als slaaf gevangen genomen en haar familie afgeslacht door de sadistische Generaal Crassius. Serana wordt een aantrekkelijke jonge vrouw en is een opstandige slavendanseres. Als zij uit zelfverdediging een opdringerige Romeinse Senator neersteekt, vlucht ze samen met de gevreesde vrouwelijke krijger Lone. Onder bescherming van de 'Amazones', leert Serana de kunst van de 'mortal combat'. Gedreven door haar haat voor Crassius, groeit ze uit tot een van de meest volmaakte en dodelijke krijgers van de Amazones.\n &lt;a href=&quot;\nhttp://www.moviemeter.nl/film/3210&quot; rel=&quot;nofollow&quot; target=&quot;_NEW&quot;&gt;\nhttp://www.moviemeter.nl/film/3210&lt;/a&gt;\n\nOndertitels (srt) : Duits, Engels en Nederlands.\n\nHoesjes bijgevoegd.\n\nGeneral\nComplete name                    : Eigen RipsAmazons and Gladiators-AC3-XviD-DVDRip[Eng]2001 2Lions-TeamAmazons and Gladiators-AC3-XviD-DVDRip[Eng]2001.avi\nFormat                           : AVI\nFormat/Info                      : Audio Video Interleave\nFile size                        : 1.36 GiB\nDuration                         : 1h 29mn\nOverall bit rate                 : 2 173 Kbps\nWriting application              : VirtualDubMod 1.5.4.1 (build 2178/release)\nWriting library                  : VirtualDubMod build 2178/release\n\nVideo\nID                               : 0\nFormat                           : MPEG-4 Visual\nFormat profile                   : Simple@L3\nFormat settings, BVOP            : No\nFormat settings, QPel            : No\nFormat settings, GMC             : No warppoints\nFormat settings, Matrix          : Default (H.263)\nCodec ID                         : XVID\nCodec ID/Hint                    : XviD\nDuration                         : 1h 29mn\nBit rate                         : 1 716 Kbps\nWidth                            : 720 pixels\nHeight                           : 400 pixels\nDisplay aspect ratio             : 16:9\nFrame rate                       : 25.000 fps\nResolution                       : 8 bits\nColorimetry                      : 4:2:0\nScan type                        : Progressive\nBits/(Pixel*Frame)               : 0.238\nStream size                      : 1.07 GiB (79%)\nWriting library                  : XviD 1.1.2 (UTC 2006-11-01)\n\nAudio\nID                               : 1\nFormat                           : AC-3\nFormat/Info                      : Audio Coding 3\nFormat_Settings_ModeExtension    : CM (complete main)\nCodec ID                         : 2000\nDuration                         : 1h 29mn\nBit rate mode                    : Constant\nBit rate                         : 448 Kbps\nChannel(s)                       : 6 channels\nChannel positions                : Front: L C R, Side: L R, LFE\nSampling rate                    : 48.0 KHz\nStream size                      : 287 MiB (21%)\nAlignment                        : Split accross interleaves\nInterleave, duration             : 40 ms (1.00 video frame)\nInterleave, preload duration     : 500 ms\n\nA BIG THANKS to BrunoBspot for the source.. \n\nBrought to you by \n2Lions Team\n\nmeer zien??\nKom dan eens kijken op ons forum \n                    &lt;a href=&quot;\nhttp://www.2lions.ons-forum.nl&quot; rel=&quot;nofollow&quot; target=&quot;_NEW&quot;&gt;\nhttp://www.2lions.ons-forum.nl&lt;/a&gt;\n\n2Lions the site to be for all your Dutch MOVIES and more\n\n******************************************\n\nDON T HIT AND RUN Niet gelijk afhaken als de FILM binnen is blijf seeden. \n\nDon`t quit after you finished the download, but keep seeding\n\nThere are fake torrents from uploaders who use our team name.\nThose are not ours, or members from our team.\nWe 2Lions-Team are not responsible for the fake posts on our name\n\nWij 2Lions-Team zijn niet verantwoordelijk voor die zieke FAKE posten die op onze naam worden gedaan\n\nPlease check our site !!!\n\nto the fakers , get a life !!!","torrent":{"xt":"urn:btih:f62549985f37498a27d78a5b74e4117d4fb9551b","amp;dn":"Amazons+and+Gladiators-AC3-XviD-DVDRip%5BEng%5D2001+2Lions-Team","amp;tr":["udp%3A%2F%2Ftracker.openbittorrent.com%3A80","udp%3A%2F%2Fopen.demonii.com%3A1337","udp%3A%2F%2Ftracker.coppersurfer.tk%3A6969","udp%3A%2F%2Fexodus.desync.com%3A6969"],"infoHash":"f62549985f37498a27d78a5b74e4117d4fb9551b","infoHashBuffer":{"type":"Buffer","data":[246,37,73,152,95,55,73,138,39,215,138,91,116,228,17,125,79,185,85,27]},"announce":[],"urlList":[]}}